<?xml version="1.0" encoding="UTF-8"?>
<svg width="20px" height="20px" viewBox="0 0 20 20" version="1.1" xmlns="http://www.w3.org/2000/svg" xmlns:xlink="http://www.w3.org/1999/xlink">
    <!-- Generator: Sketch 59.1 (86144) - https://sketch.com -->
    <title>Icon/Home-on</title>
    <desc>Created with Sketch.</desc>
    <g id="Icon/Home-on" stroke="none" stroke-width="1" fill="none" fill-rule="evenodd">
        <g id="huangsetubiaozhizuomoban-01" transform="translate(0.000000, 1.000000)" fill-rule="nonzero">
            <path d="M0.129464286,7.46473214 C-0.06875,7.18169643 1.2490009e-16,6.79151786 0.283035714,6.59308036 L9.51026786,0.132366071 C9.79330357,-0.0658482143 10.1834821,0.00290178571 10.3819196,0.2859375 C10.5801339,0.568973214 10.5113839,0.959151786 10.2283482,1.15758929 L1.00111607,7.61852679 C0.718080357,7.81674107 0.327678571,7.74776786 0.129464286,7.46473214 Z" id="Path" fill="#3D3D3D"></path>
            <path d="M19.8839286,7.46473214 C20.0821429,7.18169643 20.0133929,6.79151786 19.7303571,6.59308036 L10.503125,0.132366071 C10.2200893,-0.0658482143 9.82991071,0.00290178571 9.63147321,0.2859375 C9.43325893,0.568973214 9.50200893,0.959151786 9.78504464,1.15758929 L19.0122768,7.61852679 C19.2955357,7.81674107 19.6857143,7.74776786 19.8839286,7.46473214 Z" id="Path" fill="#3D3D3D"></path>
            <path d="M5.19107143,11.4544643 C5.19107143,14.021109 7.2717481,16.1017857 9.83839286,16.1017857 C12.4050376,16.1017857 14.4857143,14.021109 14.4857143,11.4544643 C14.4857143,9.79413624 13.5999399,8.25992984 12.1620536,7.42976581 C10.7241673,6.59960178 8.95261839,6.59960178 7.51473212,7.42976581 C6.07684586,8.25992984 5.19107143,9.79413624 5.19107143,11.4544643 Z" id="Path" fill="#F4E43E"></path>
            <path d="M7.63370536,18.0756696 L2.96294643,18.0756696 C2.07924107,18.0756696 1.36026786,17.3805804 1.36026786,16.5263393 L1.36026786,8.9234375 C1.36026786,8.61517857 1.61004464,8.36540179 1.91830357,8.36540179 C2.2265625,8.36540179 2.47633929,8.61517857 2.47633929,8.9234375 L2.47633929,16.5263393 C2.47633929,16.7651786 2.69464286,16.9595982 2.96294643,16.9595982 L7.63392857,16.9595982 C7.9421875,16.9595982 8.19196429,17.209375 8.19196429,17.5176339 C8.19196429,17.8258929 7.94196429,18.0756696 7.63370536,18.0756696 Z" id="Path" fill="#3D3D3D"></path>
            <path d="M12.8904018,18.0756696 C12.5821429,18.0756696 12.3323661,17.8258929 12.3323661,17.5176339 L12.3323661,11.6267857 C12.3323661,11.3006696 12.1345982,11.025 11.9002232,11.025 L7.95625,11.025 C7.72209821,11.025 7.52410714,11.3006696 7.52410714,11.6267857 L7.52410714,17.5176339 C7.52410714,17.8258929 7.27433036,18.0756696 6.96607143,18.0756696 C6.6578125,18.0756696 6.40803571,17.8258929 6.40803571,17.5176339 L6.40803571,11.6267857 C6.40803571,10.6794643 7.10245536,9.90892857 7.95625,9.90892857 L11.9002232,9.90892857 C12.7537946,9.90892857 13.4484375,10.6794643 13.4484375,11.6267857 L13.4484375,17.5176339 C13.4484375,17.8258929 13.1986607,18.0756696 12.8904018,18.0756696 Z" id="Path" fill="#3D3D3D"></path>
            <path d="M17.0107143,18.0482143 L12.3399554,18.0482143 C12.0316964,18.0482143 11.7819196,17.7984375 11.7819196,17.4901786 C11.7819196,17.1819196 12.0316964,16.9321429 12.3399554,16.9321429 L17.0109375,16.9321429 C17.2792411,16.9321429 17.4975446,16.7377232 17.4975446,16.4988839 L17.4975446,8.89598214 C17.4975446,8.58772321 17.7473214,8.33794643 18.0555804,8.33794643 C18.3638393,8.33794643 18.6136161,8.58772321 18.6136161,8.89598214 L18.6136161,16.4988839 C18.6133929,17.3533482 17.8944196,18.0482143 17.0107143,18.0482143 L17.0107143,18.0482143 Z" id="Path" fill="#3D3D3D"></path>
        </g>
    </g>
</svg>