<?xml version="1.0" encoding="UTF-8"?>
<svg width="20px" height="20px" viewBox="0 0 20 20" version="1.1" xmlns="http://www.w3.org/2000/svg" xmlns:xlink="http://www.w3.org/1999/xlink">
    <!-- Generator: Sketch 59.1 (86144) - https://sketch.com -->
    <title>Icon/Me-on</title>
    <desc>Created with Sketch.</desc>
    <g id="Icon/Me-on" stroke="none" stroke-width="1" fill="none" fill-rule="evenodd">
        <g id="wode" transform="translate(1.000000, 0.000000)" fill-rule="nonzero">
            <path d="M4.70127645,5.05610773 C4.70127645,7.49437674 6.55156486,9.47098431 8.8340113,9.47098431 C11.1164577,9.47098431 12.9667462,7.49437674 12.9667462,5.05610773 C12.9667462,3.47882424 12.1790514,2.02135417 10.9003787,1.23271241 C9.62170612,0.444070657 8.04631648,0.444070657 6.76764385,1.23271241 C5.48897123,2.02135417 4.70127645,3.47882424 4.70127645,5.05610773 L4.70127645,5.05610773 Z" id="Path" fill="#F683A2"></path>
            <path d="M8.83401131,13.3440205 C5.36815688,13.3440205 2.54673975,10.349471 2.54673975,6.67201025 C2.54673975,2.99454951 5.36815686,0 8.83401131,0 C12.2998658,0 15.1212829,2.99134338 15.1212829,6.67201025 C15.1212829,10.3526771 12.2998657,13.3440205 8.83401131,13.3440205 Z M8.83401131,1.28246232 C6.07351115,1.28246232 3.82920207,3.69990381 3.82920207,6.67201025 C3.82920207,9.6441167 6.07351115,12.0615582 8.83401131,12.0615582 C11.5945115,12.0615582 13.8388205,9.6441167 13.8388205,6.67201025 C13.8388205,3.69990381 11.5945115,1.28246232 8.83401131,1.28246232 Z" id="Shape" fill="#3D3D3D"></path>
            <path d="M17.7952168,20 L0.642283184,20 C0.288140986,20 0.00105201172,19.712911 0.00105201172,19.3587688 L0.00105201172,17.8935556 C0.0108367344,14.7192441 1.8748981,11.8435502 4.76860572,10.5386342 C5.09176047,10.3925505 5.47215336,10.536095 5.61823701,10.8592498 C5.76432066,11.1824045 5.62077618,11.5627974 5.29762143,11.7088811 C2.86164738,12.8038532 1.29164353,15.2228128 1.28351436,17.8935556 L1.28351436,18.7175377 L17.1539856,18.7175377 L17.1539856,17.8935556 C17.1440145,15.0257958 15.3393271,12.4712915 12.6397183,11.5036871 C12.4131904,11.434915 12.2429831,11.2469256 12.196985,11.0147003 C12.150987,10.7824749 12.2366823,10.5437976 12.4198906,10.393867 C12.6030989,10.2439364 12.8540114,10.207147 13.0725493,10.2981725 C16.2824119,11.4467079 18.4276527,14.4844099 18.436448,17.8935556 L18.436448,19.3587688 C18.436448,19.712911 18.149359,20 17.7952168,20 Z" id="Path" fill="#3D3D3D"></path>
        </g>
    </g>
</svg>