<?xml version="1.0" encoding="UTF-8"?>
<svg width="20px" height="16px" viewBox="0 0 20 16" version="1.1" xmlns="http://www.w3.org/2000/svg" xmlns:xlink="http://www.w3.org/1999/xlink">
    <!-- Generator: Sketch 59.1 (86144) - https://sketch.com -->
    <title>dakai-2</title>
    <desc>Created with Sketch.</desc>
    <g id="Symbols" stroke="none" stroke-width="1" fill="none" fill-rule="evenodd">
        <g id="Icon/Closed" fill-rule="nonzero">
            <g id="dakai-2">
                <path d="M0.966884216,14.9393091 L15.4701474,14.9393091 L15.4701474,2.98786181 L9.66884216,2.98786181 L6.76818951,0.995953937 L0.966884216,0.995953937 L0.966884216,14.9393091 Z M9.96180807,1.99190787 L15.4701474,1.99190787 C16.0041429,1.99190787 16.4370317,2.43781164 16.4370317,2.98786181 L16.4370317,14.9393091 C16.4370317,15.4893592 16.0041429,15.935263 15.4701474,15.935263 L0.966884216,15.935263 C0.432888808,15.935263 0,15.4893592 0,14.9393091 L0,0.995953937 C0,0.445903766 0.432888808,-2.507214e-08 0.966884216,-2.507214e-08 L6.76818951,-2.507214e-08 C6.95918037,-2.507214e-08 7.14590585,0.0581775386 7.30481025,0.167320261 L9.96180807,1.99190787 Z" id="Shape" fill="#777777"></path>
                <polygon id="Path" fill="#E0E0E0" points="0.966884216 14.9393091 0.966884216 0.995953937 6.76818951 0.995953937 9.66884216 2.98786181 15.4701474 2.98786181 15.4701474 14.9393091"></polygon>
                <path d="M4.39642253,6.97167756 L0.966884216,14.9393091 L15.4701474,14.9393091 L18.9838047,6.97167756 L4.39642253,6.97167756 Z M4.39642253,5.97572339 L18.9838047,5.97572339 C19.3125336,5.97572339 19.6186966,6.14794714 19.7965975,6.43268884 C19.9744985,6.71743054 19.9997631,7.07577159 19.8636693,7.38400249 L16.3500121,15.351634 C16.1931125,15.7069869 15.849132,15.9351549 15.4701474,15.935263 L0.966884216,15.935263 C0.639854733,15.9351563 0.335040367,15.7647763 0.156710242,15.4824056 C-0.0216198825,15.200035 -0.0492949211,14.843946 0.0831520425,14.5359477 L3.51172347,6.56831622 C3.66674853,6.20781345 4.01364448,5.97545424 4.39642253,5.97572339 Z" id="Shape" fill="#777777"></path>
                <polygon id="Path" fill="#AEAEAE" points="4.39642253 6.97167756 18.9838047 6.97167756 15.4701474 14.9393091 0.966884216 14.9393091"></polygon>
            </g>
        </g>
    </g>
</svg>