<?xml version="1.0" encoding="UTF-8"?>
<svg width="11px" height="10px" viewBox="0 0 11 10" version="1.1" xmlns="http://www.w3.org/2000/svg" xmlns:xlink="http://www.w3.org/1999/xlink">
    <!-- Generator: Sketch 59.1 (86144) - https://sketch.com -->
    <title>pinglun-4</title>
    <desc>Created with Sketch.</desc>
    <g id="Symbols" stroke="none" stroke-width="1" fill="none" fill-rule="evenodd">
        <g id="IssueCard_2/Label" transform="translate(-137.000000, -108.000000)" fill="#9F9F9F" fill-rule="nonzero">
            <g id="foot">
                <g transform="translate(15.000000, 104.000000)">
                    <g id="Group" transform="translate(122.000000, 0.000000)">
                        <g id="pinglun-4" transform="translate(0.000000, 4.000000)">
                            <path d="M9.95974657,0.0107183689 L0.710985137,0.0107183689 C0.317978277,0.0107183689 0,0.328696646 0,0.721703506 L0,7.12414253 C0,7.51714939 0.317978277,7.83512767 0.710985137,7.83512767 L1.42197027,7.83512767 L1.42197027,9.96927401 L4.62318979,7.83512767 L9.95855564,7.83512767 C10.3515625,7.83512767 10.6695441,7.51714939 10.6695441,7.12414253 L10.6695441,0.721703506 C10.6707317,0.328696646 10.3527534,0.0107183689 9.95974657,0.0107183689 Z M9.95974657,6.7680545 C9.95974657,6.96455793 9.80016197,7.12414253 9.60365854,7.12414253 L4.26829268,7.12414253 L2.13414634,8.54730373 L2.13414634,7.12414253 L1.06707317,7.12414253 C0.870569741,7.12414253 0.710985137,6.96455793 0.710985137,6.7680545 L0.710985137,1.07779154 C0.710985137,0.88128811 0.870569741,0.721703506 1.06707317,0.721703506 L9.60365854,0.721703506 C9.80016197,0.721703506 9.95974657,0.88128811 9.95974657,1.07779154 L9.95974657,6.7680545 Z" id="Shape"></path>
                        </g>
                    </g>
                </g>
            </g>
        </g>
    </g>
</svg>