<?xml version="1.0" encoding="UTF-8"?>
<svg width="11px" height="10px" viewBox="0 0 11 10" version="1.1" xmlns="http://www.w3.org/2000/svg" xmlns:xlink="http://www.w3.org/1999/xlink">
    <!-- Generator: Sketch 59.1 (86144) - https://sketch.com -->
    <title>comment</title>
    <desc>Created with Sketch.</desc>
    <g id="Symbols" stroke="none" stroke-width="1" fill="none" fill-rule="evenodd">
        <g id="IssueCard_2/Label" transform="translate(-137.000000, -108.000000)" fill="#9F9F9F" fill-rule="nonzero">
            <g id="foot">
                <g transform="translate(15.000000, 104.000000)">
                    <g id="Group" transform="translate(122.000000, 0.000000)">
                        <g id="comment" transform="translate(0.000000, 4.000000)">
                            <path d="M5.17515924,9.95222947 C5.06956407,9.95222947 4.96828064,9.91035278 4.89371019,9.83558917 L3.69944268,8.64132166 C3.54378981,8.48566879 3.54378981,8.23407643 3.69944268,8.07842357 C3.85509554,7.9227707 4.1066879,7.9227707 4.26234076,8.07842357 L5.17515924,8.99124204 L6.08797771,8.07842357 C6.16242038,8.0035828 6.26353503,7.96178344 6.36942675,7.96178344 L9.15605096,7.96178344 C9.37579618,7.96178344 9.55414013,7.78343949 9.55414013,7.56369427 L9.55414013,1.19426752 C9.55414013,0.974920382 9.37579618,0.796178344 9.15605096,0.796178344 L1.19426752,0.796178344 C0.974920382,0.796178344 0.796178344,0.974920382 0.796178344,1.19426752 L0.796178344,7.56369427 C0.796178344,7.78343949 0.974920382,7.96178344 1.19426752,7.96178344 L2.38853503,7.96178344 C2.60828025,7.96178344 2.7866242,8.1397293 2.7866242,8.35987261 C2.7866242,8.58001592 2.60828025,8.75796178 2.38853503,8.75796178 L1.19426752,8.75796178 C0.535828025,8.75796178 0,8.22213376 0,7.56369427 L0,1.19426752 C0,0.535828025 0.535828025,0 1.19426752,0 L9.15605096,0 C9.81449045,0 10.3503185,0.535828025 10.3503185,1.19426752 L10.3503185,7.56369427 C10.3503185,8.22213376 9.81449045,8.75796178 9.15605096,8.75796178 L6.53423567,8.75796178 L5.45660828,9.83558917 C5.38203783,9.91035278 5.2807544,9.95222947 5.17515924,9.95222947 Z" id="Path"></path>
                        </g>
                    </g>
                </g>
            </g>
        </g>
    </g>
</svg>