<?xml version="1.0" encoding="UTF-8"?>
<svg width="19px" height="16px" viewBox="0 0 19 16" version="1.1" xmlns="http://www.w3.org/2000/svg" xmlns:xlink="http://www.w3.org/1999/xlink">
    <!-- Generator: Sketch 59.1 (86144) - https://sketch.com -->
    <title>dakai</title>
    <desc>Created with Sketch.</desc>
    <g id="Symbols" stroke="none" stroke-width="1" fill="none" fill-rule="evenodd">
        <g id="Icon/Open" fill-rule="nonzero">
            <g id="dakai">
                <path d="M15.9865433,14.7686286 C15.9865433,14.7939184 15.9730866,14.8192082 15.95963,14.8318531 C15.9461733,14.844498 15.9192599,14.8571429 15.8923465,14.8571429 L0.107653491,14.8571429 C0.0538267457,14.8571429 0,14.8192082 0,14.7559837 L0,2.95830197 C0,2.90772241 0.04037005,2.85714286 0.107653491,2.85714286 L15.8923465,2.85714286 C15.9461733,2.85714286 16,2.89507752 16,2.95830197 L16,14.7686286 L15.9865433,14.7686286 Z" id="Path" fill="#FAAD06"></path>
                <path d="M14.9907485,1.83339616 L7.99327166,1.83339616 L7.99327166,0.916698069 C7.99327166,0.675461731 7.88561817,0.446287218 7.69722456,0.265359972 C7.50883095,0.0964945354 7.25315392,0 6.98402019,0 L0.995794777,0 C0.726661048,0 0.470984016,0.0964945354 0.282590406,0.265359972 C0.107653491,0.446287218 0,0.675461748 0,0.916698069 L0,4.57142857 C0,4.33019223 0.107653491,4.10101772 0.296047101,3.92009046 C0.484440711,3.75122502 0.740117744,3.65473049 1.00925147,3.65473049 L15.0042052,3.65473049 C15.5559294,3.65473049 16,4.06483226 16,4.57142857 L16,2.75009422 C15.9865433,2.24349791 15.5424727,1.83339616 14.9907485,1.83339616 Z" id="Path" fill="#FAAD06"></path>
                <polygon id="Path" fill="#FFFFFF" points="2.28571429 2.85714286 14.8571429 2.85714286 14.8571429 13.7142857 2.28571429 13.7142857"></polygon>
                <polygon id="Path" fill="#FFFFFF" points="1.14285714 3.42857143 14.2857143 3.42857143 14.2857143 14.2857143 1.14285714 14.2857143"></polygon>
                <path d="M15.9788058,14.9913364 C15.9788058,15.5487558 15.5349501,16 14.983493,16 L0.99531281,16 C0.443855711,16 0,15.5487558 0,14.9913364 L2.8648869,6.72294932 C2.8648869,6.45751153 2.97248828,6.20534564 3.16079071,6.00626728 C3.34909314,5.82046083 3.60464642,5.71428571 3.87364989,5.71428571 L17.86183,5.71428571 C18.4132871,5.71428571 18.8571429,6.16552996 18.8571429,6.72294932 L15.9788058,14.9913364 Z" id="Path" fill="#FFCB45"></path>
            </g>
        </g>
    </g>
</svg>